<svg version="1.1" preserveAspectRatio="none" xmlns="http://www.w3.org/2000/svg" width="500" height="500" viewBox="0 0 500 500"><rect width="100%" height="100%" fill="#FFFFFF" fill-opacity="1"/><svg viewBox="346.0002 26.7795 284 267.0393" width="417" height="392.096436971831" x="41.5px" y="53.9518px" xmlns="http://www.w3.org/2000/svg" xmlns:xlink="http://www.w3.org/1999/xlink" preserveAspectRatio="none"><defs></defs><style>.aLgOaV3zRcolors-05c2b5ab8-6bd3-4f27-98d6-1b4e66878a56 {fill:#0C0C0C;fill-opacity:1;}.aLgOaV3zRcolors-35c2b5ab8-6bd3-4f27-98d6-1b4e66878a56 {fill:#D7D6D6;fill-opacity:1;}.aLgOaV3zRcolors-45c2b5ab8-6bd3-4f27-98d6-1b4e66878a56 {fill:#C0C0C0;fill-opacity:1;}.aLgOaV3zRcolors-55c2b5ab8-6bd3-4f27-98d6-1b4e66878a56 {fill:#6D6D6D;fill-opacity:1;}.aLgOaV3zRcolors-65c2b5ab8-6bd3-4f27-98d6-1b4e66878a56 {fill:#454545;fill-opacity:1;}.aLgOaV3zRcolors-75c2b5ab8-6bd3-4f27-98d6-1b4e66878a56 {fill:#282828;fill-opacity:1;}.companyName5c2b5ab8-6bd3-4f27-98d6-1b4e66878a56 {fill:#0C0C0C;fill-opacity:1;}.icon25c2b5ab8-6bd3-4f27-98d6-1b4e66878a56 {fill:#DFDFDF;fill-opacity:1;}.icon3-str5c2b5ab8-6bd3-4f27-98d6-1b4e66878a56 {stroke:#929292;stroke-opacity:1;}.icon35c2b5ab8-6bd3-4f27-98d6-1b4e66878a56 {fill:#929292;fill-opacity:1;}.text5c2b5ab8-6bd3-4f27-98d6-1b4e66878a56 {fill:#0C0C0C;fill-opacity:1;}</style><g opacity="1" transform="rotate(0 367.7293 238.315)">
<svg width="240.5417" height="55.5038" x="367.7293" y="238.315" version="1.1" preserveAspectRatio="none" viewBox="-15.1399 -115.5628 500.8845 115.57979999999999">
  <g transform="matrix(1 0 0 1 0 0)" class="text5c2b5ab8-6bd3-4f27-98d6-1b4e66878a56"><path id="id-5c2b5ab8-6bd3-4f27-98d6-1b4e66878a566izo4zJp21" d="M18.86-99.92L21.56-97.73L4.83-77.20L2.50-79.10L16.36-96.09L0.80-92.51L1.04-108.57L-12.81-91.58L-15.14-93.48L1.60-114.00L4.29-111.80L3.70-96.08L18.86-99.92Z M35.76-80.39L35.76-80.39Q39.49-77.91 40.16-73.86L40.16-73.86Q40.77-70.00 38.31-66.30L38.31-66.30Q35.85-62.60 32.06-61.67L32.06-61.67Q28.06-60.72 24.33-63.20L24.33-63.20Q20.60-65.68 19.93-69.73L19.93-69.73Q19.33-73.59 21.79-77.29L21.79-77.29Q24.25-80.98 28.04-81.92L28.04-81.92Q32.03-82.87 35.76-80.39ZM25.84-65.46L25.84-65.46Q28.54-63.67 31.34-64.50L31.34-64.50Q34.02-65.26 35.81-67.96L35.81-67.96Q37.60-70.66 37.28-73.42L37.28-73.42Q36.95-76.33 34.26-78.12L34.26-78.12Q31.56-79.92 28.75-79.09L28.75-79.09Q26.08-78.32 24.28-75.62L24.28-75.62Q22.49-72.93 22.82-70.16L22.82-70.16Q23.14-67.26 25.84-65.46Z M57.54-43.77L59.08-46.57Q55.28-44.65 51.11-46.94L51.11-46.94Q47.33-49.03 46.40-52.97L46.40-52.97Q45.51-56.84 47.62-60.66L47.62-60.66Q49.72-64.47 53.46-65.79L53.46-65.79Q57.29-67.11 61.25-64.93Q65.21-62.74 65.63-58.45L65.63-58.45L71.05-68.29L73.68-66.84L60.17-42.32L57.54-43.77ZM52.78-49.13L52.78-49.13Q55.61-47.57 58.34-48.62L58.34-48.62Q60.94-49.61 62.50-52.45L62.50-52.45Q64.07-55.29 63.52-58.01L63.52-58.01Q62.95-60.88 60.11-62.45L60.11-62.45Q57.31-63.99 54.48-62.99L54.48-62.99Q51.81-62.04 50.24-59.21L50.24-59.21Q48.68-56.37 49.30-53.61L49.30-53.61Q49.97-50.68 52.78-49.13Z M87.38-29.65L88.68-32.58Q85.06-30.33 80.71-32.25L80.71-32.25Q76.76-34.00 75.48-37.85L75.48-37.85Q74.27-41.62 76.03-45.61L76.03-45.61Q77.80-49.60 81.41-51.23L81.41-51.23Q85.11-52.88 89.24-51.05Q93.38-49.22 94.17-44.98L94.17-44.98L95.48-47.94L98.22-46.73L90.13-28.44L87.38-29.65ZM82.17-34.58L82.17-34.58Q85.14-33.27 87.76-34.56L87.76-34.56Q90.27-35.77 91.58-38.73L91.58-38.73Q92.89-41.69 92.10-44.36L92.10-44.36Q91.29-47.17 88.32-48.48L88.32-48.48Q85.40-49.77 82.66-48.54L82.66-48.54Q80.09-47.36 78.77-44.39L78.77-44.39Q77.46-41.43 78.32-38.73L78.32-38.73Q79.25-35.87 82.17-34.58Z M130.32-6.31L133.52-17.00Q130.16-14.29 125.64-15.64L125.64-15.64Q121.50-16.88 119.75-20.53L119.75-20.53Q118.07-24.13 119.32-28.30L119.32-28.30Q120.57-32.48 123.94-34.56L123.94-34.56Q127.41-36.66 131.76-35.36Q136.11-34.06 137.40-30.00L137.40-30.00L138.32-33.06L141.19-32.20L133.20-5.45L130.32-6.31ZM131.15-32.70L131.15-32.70Q128.09-33.62 125.53-32.04L125.53-32.04Q123.12-30.55 122.19-27.44L122.19-27.44Q121.26-24.34 122.46-21.77L122.46-21.77Q123.73-19.05 126.80-18.14L126.80-18.14Q129.90-17.21 132.35-18.82L132.35-18.82Q134.68-20.33 135.61-23.44L135.61-23.44Q136.53-26.54 135.42-29.09L135.42-29.09Q134.26-31.77 131.15-32.70Z M166.54-6.05L163.60-6.65L164.23-9.71Q162.88-8.52 161.15-7.85Q159.42-7.19 157.46-7.59Q155.51-8.00 154.21-8.84Q152.91-9.68 152.08-10.99L152.08-10.99Q150.14-13.88 150.95-17.80L150.95-17.80L153.31-29.20L156.24-28.59L153.91-17.27Q153.35-14.57 154.55-12.65Q155.74-10.73 158.17-10.22L158.17-10.22Q160.64-9.72 162.70-11.00L162.70-11.00Q164.77-12.33 165.31-14.96L165.31-14.96L167.64-26.24L170.58-25.63L166.54-6.05Z M189.72-5.08L189.72-5.08Q193.73-4.60 195.88-7.72L195.88-7.72L199.14-7.33Q197.78-4.75 195.33-3.35Q192.89-1.96 189.35-2.38L189.35-2.38Q184.87-2.92 182.41-6.24L182.41-6.24Q180.02-9.47 180.54-13.84L180.54-13.84Q181.07-18.25 184.04-20.79L184.04-20.79Q187.18-23.43 191.62-22.90L191.62-22.90Q196.07-22.36 198.49-19.05L198.49-19.05Q200.77-15.87 200.24-11.47L200.24-11.47L200.10-10.27L183.46-12.28Q183.44-9.50 185.09-7.49L185.09-7.49Q186.78-5.43 189.72-5.08ZM191.30-20.20L191.30-20.20Q188.56-20.53 186.49-19.05L186.49-19.05Q184.54-17.63 183.83-15.05L183.83-15.05L197.33-13.43Q197.25-16.10 195.70-17.94L195.70-17.94Q194.04-19.87 191.30-20.20Z M226.46-27.98L229.46-27.99L229.49-16.87Q230.56-18.31 232.12-19.31Q233.68-20.32 235.68-20.32Q237.68-20.33 239.12-19.77Q240.56-19.21 241.64-18.09L241.64-18.09Q244.13-15.66 244.14-11.66L244.14-11.66L244.16-0.02L241.16-0.01L241.14-11.57Q241.13-14.33 239.57-15.97Q238.00-17.61 235.52-17.60L235.52-17.60Q233.00-17.60 231.25-15.91L231.25-15.91Q229.49-14.19 229.50-11.51L229.50-11.51L229.52 0.01L226.52 0.02L226.46-27.98Z M273.67-1.96L273.40-5.14Q271.31-1.43 266.57-1.03L266.57-1.03Q262.26-0.66 259.30-3.42L259.30-3.42Q256.42-6.15 256.05-10.49L256.05-10.49Q255.68-14.84 258.06-18.01L258.06-18.01Q260.51-21.23 265.02-21.61Q269.52-22.00 272.25-18.66L272.25-18.66L271.98-21.88L274.97-22.14L276.66-2.21L273.67-1.96ZM266.74-3.77L266.74-3.77Q269.96-4.05 271.65-6.44L271.65-6.44Q273.26-8.71 272.99-11.93L272.99-11.93Q272.71-15.16 270.74-17.12L270.74-17.12Q268.67-19.19 265.45-18.92L265.45-18.92Q262.26-18.65 260.45-16.25L260.45-16.25Q258.76-13.97 259.04-10.75L259.04-10.75Q259.31-7.52 261.36-5.56L261.36-5.56Q263.55-3.50 266.74-3.77Z M289.26-32.21L291.22-21.14Q293.00-25.08 297.65-25.90L297.65-25.90Q301.90-26.66 305.07-24.17L305.07-24.17Q308.22-21.73 308.99-17.44L308.99-17.44Q309.75-13.14 307.63-9.76L307.63-9.76Q305.52-6.34 301.05-5.54Q296.58-4.75 293.60-7.79L293.60-7.79L294.16-4.64L291.20-4.12L286.30-31.69L289.26-32.21ZM300.39-8.19L300.39-8.19Q303.54-8.75 305.12-11.30L305.12-11.30Q306.60-13.72 306.03-16.91L306.03-16.91Q305.47-20.10 303.24-21.86L303.24-21.86Q300.88-23.71 297.73-23.15L297.73-23.15Q294.54-22.59 293.08-20.05L293.08-20.05Q291.68-17.65 292.25-14.46L292.25-14.46Q292.82-11.27 294.96-9.50L294.96-9.50Q297.20-7.62 300.39-8.19Z M318.35-38.13L324.91-10.91L322.00-10.20L315.44-37.43L318.35-38.13Z M352.27-18.65L351.34-21.71Q350.07-17.64 345.52-16.25L345.52-16.25Q341.39-14.98 337.91-17.06L337.91-17.06Q334.52-19.11 333.24-23.28L333.24-23.28Q331.97-27.45 333.62-31.05L333.62-31.05Q335.35-34.72 339.67-36.04Q343.99-37.37 347.37-34.68L347.37-34.68L346.42-37.77L349.29-38.65L355.14-19.53L352.27-18.65ZM345.11-18.97L345.11-18.97Q348.20-19.91 349.35-22.61L349.35-22.61Q350.45-25.16 349.50-28.26L349.50-28.26Q348.55-31.36 346.21-32.86L346.21-32.86Q343.75-34.45 340.66-33.50L340.66-33.50Q337.60-32.56 336.34-29.84L336.34-29.84Q335.16-27.26 336.11-24.16L336.11-24.16Q337.06-21.06 339.48-19.59L339.48-19.59Q342.05-18.03 345.11-18.97Z M377.20-49.44L378.53-46.53Q379.25-50.72 383.59-52.70L383.59-52.70Q387.52-54.49 391.20-52.87L391.20-52.87Q394.87-51.28 396.67-47.32L396.67-47.32Q398.48-43.35 397.27-39.54L397.27-39.54Q396.07-35.70 391.96-33.83Q387.84-31.96 384.15-34.19L384.15-34.19L388.77-24.03L386.04-22.79L374.47-48.20L377.20-49.44ZM384.35-50.06L384.35-50.06Q381.40-48.71 380.62-45.90L380.62-45.90Q379.86-43.22 381.20-40.27L381.20-40.27Q382.54-37.32 385.06-36.14L385.06-36.14Q387.70-34.88 390.65-36.22L390.65-36.22Q393.56-37.55 394.45-40.42L394.45-40.42Q395.29-43.12 393.94-46.07L393.94-46.07Q392.60-49.02 390.01-50.17L390.01-50.17Q387.26-51.38 384.35-50.06Z M409.96-66.06L409.96-66.06Q413.87-68.25 417.78-67.00L417.78-67.00Q421.49-65.78 423.66-61.90L423.66-61.90Q425.82-58.03 424.93-54.23L424.93-54.23Q423.95-50.24 420.04-48.05L420.04-48.05Q416.13-45.86 412.22-47.11L412.22-47.11Q408.51-48.34 406.34-52.21L406.34-52.21Q404.17-56.09 405.07-59.89L405.07-59.89Q406.05-63.88 409.96-66.06ZM418.71-50.43L418.71-50.43Q421.54-52.01 422.09-54.88L422.09-54.88Q422.62-57.61 421.04-60.44L421.04-60.44Q419.46-63.27 416.85-64.24L416.85-64.24Q414.11-65.27 411.29-63.69L411.29-63.69Q408.46-62.11 407.91-59.23L407.91-59.23Q407.38-56.51 408.96-53.68L408.96-53.68Q410.54-50.85 413.15-49.88L413.15-49.88Q415.88-48.84 418.71-50.43Z M436.44-82.39L436.61-82.50L438.26-79.99L437.96-79.80Q435.25-78.01 434.98-74.72L434.98-74.72Q434.74-71.59 436.64-68.72L436.64-68.72L441.48-61.37L438.97-59.72L427.97-76.42L430.47-78.07L433.18-73.96Q432.26-77.10 434.12-80.09L434.12-80.09Q434.87-81.35 436.44-82.39L436.44-82.39Z M472.18-83.61L469.83-81.74L459.00-95.31L455.81-92.76L454.17-94.83L457.36-97.37L452.89-102.97L455.24-104.84L459.70-99.24L463.30-102.11L464.94-100.05L461.35-97.18L472.18-83.61Z M483.40-92.98L470.22-108.03L472.48-110.01L485.66-94.96L483.40-92.98ZM465.34-113.43L467.78-115.56L470.36-112.61L467.92-110.48L465.34-113.43Z"/></g>
</svg>
</g><g opacity="1" transform="rotate(0 346.0002 26.7795)">
<svg width="284" height="25.7832" x="346.0002" y="26.7795" version="1.1" preserveAspectRatio="none" viewBox="1.3867 -28.3984 317.1094 28.7891">
  <g transform="matrix(1 0 0 1 0 0)" class="companyName5c2b5ab8-6bd3-4f27-98d6-1b4e66878a56"><path id="id-5c2b5ab8-6bd3-4f27-98d6-1b4e66878a56D6z1nYkh10" d="M33.55-28.01L38.71-28.01L34.02-1.76Q33.87-0.98 33.32-0.41Q32.77 0.16 31.99 0.31L31.99 0.31Q31.19 0.45 30.48 0.14Q29.77-0.18 29.36-0.84L29.36-0.84L20.06-16.11L10.74-0.84Q10.41-0.27 9.83 0.04Q9.26 0.35 8.59 0.35L8.59 0.35Q7.68 0.35 6.97-0.23Q6.27-0.82 6.11-1.76L6.11-1.76L1.39-28.01L6.54-28.01L9.90-9.51L17.91-22.29Q18.24-22.85 18.82-23.16Q19.39-23.48 20.06-23.48L20.06-23.48Q20.72-23.48 21.29-23.16Q21.86-22.85 22.23-22.29L22.23-22.29L30.20-9.51L33.55-28.01Z M72.23-16.68L72.23-11.33Q72.23-8.77 71.35-6.62Q70.47-4.47 68.91-2.91Q67.34-1.35 65.21-0.48Q63.07 0.39 60.55 0.39L60.55 0.39L53.67 0.39Q51.15 0.39 49.00-0.48Q46.86-1.35 45.29-2.91Q43.73-4.47 42.84-6.62Q41.95-8.77 41.95-11.33L41.95-11.33L41.95-16.68Q41.95-19.22 42.84-21.38Q43.73-23.54 45.29-25.09Q46.86-26.64 49.00-27.52Q51.15-28.40 53.67-28.40L53.67-28.40L60.55-28.40Q63.07-28.40 65.21-27.52Q67.34-26.64 68.91-25.09Q70.47-23.54 71.35-21.38Q72.23-19.22 72.23-16.68L72.23-16.68ZM67.15-11.33L67.15-16.68Q67.15-18.18 66.67-19.40Q66.19-20.63 65.32-21.49Q64.45-22.36 63.23-22.84Q62.01-23.32 60.55-23.32L60.55-23.32L53.67-23.32Q52.19-23.32 50.97-22.84Q49.75-22.36 48.87-21.49Q47.99-20.63 47.51-19.40Q47.03-18.18 47.03-16.68L47.03-16.68L47.03-11.33Q47.03-9.82 47.51-8.60Q47.99-7.38 48.87-6.51Q49.75-5.64 50.97-5.17Q52.19-4.69 53.67-4.69L53.67-4.69L60.51-4.69Q61.99-4.69 63.21-5.17Q64.43-5.64 65.31-6.51Q66.19-7.38 66.67-8.60Q67.15-9.82 67.15-11.33L67.15-11.33Z M105.23-21.84L105.23-18.59Q105.23-16.86 104.80-15.49Q104.38-14.12 103.64-13.08Q102.91-12.03 101.95-11.29Q101.00-10.55 99.95-10.07Q98.91-9.59 97.84-9.38Q96.78-9.16 95.84-9.16L95.84-9.16L106.45 0L98.59 0L88.01-9.16L84.36-9.16L84.36-14.24L95.84-14.24Q96.80-14.32 97.59-14.64Q98.38-14.96 98.96-15.51Q99.53-16.05 99.84-16.83Q100.16-17.60 100.16-18.59L100.16-18.59L100.16-21.80Q100.16-22.23 100.05-22.45Q99.94-22.68 99.78-22.78Q99.61-22.89 99.42-22.91Q99.24-22.93 99.08-22.93L99.08-22.93L82.32-22.93L82.32 0L77.25 0L77.25-25.45Q77.25-25.98 77.44-26.45Q77.64-26.91 77.98-27.27Q78.32-27.62 78.79-27.81Q79.26-28.01 79.80-28.01L79.80-28.01L99.08-28.01Q100.78-28.01 101.95-27.39Q103.13-26.78 103.86-25.85Q104.59-24.92 104.91-23.85Q105.23-22.77 105.23-21.84L105.23-21.84Z M136.05-5.08L136.05 0L112.89 0Q112.34 0 111.88-0.20Q111.41-0.39 111.06-0.73Q110.72-1.07 110.53-1.54Q110.33-2.01 110.33-2.56L110.33-2.56L110.33-28.01L115.41-28.01L115.41-5.08L136.05-5.08Z M167.73-16.29L167.73-11.72Q167.73-9.16 166.85-7.01Q165.96-4.86 164.39-3.31Q162.83-1.76 160.68-0.88Q158.54 0 156.02 0L156.02 0L142.30 0Q141.76 0 141.29-0.20Q140.82-0.39 140.48-0.73Q140.14-1.07 139.94-1.54Q139.75-2.01 139.75-2.56L139.75-2.56L139.75-25.45Q139.75-25.98 139.94-26.45Q140.14-26.91 140.48-27.27Q140.82-27.62 141.29-27.81Q141.76-28.01 142.30-28.01L142.30-28.01L156.02-28.01Q158.54-28.01 160.68-27.13Q162.83-26.25 164.39-24.70Q165.96-23.14 166.85-20.99Q167.73-18.83 167.73-16.29L167.73-16.29ZM162.66-11.72L162.66-16.29Q162.66-17.77 162.18-19.00Q161.70-20.23 160.82-21.10Q159.94-21.97 158.72-22.45Q157.50-22.93 156.02-22.93L156.02-22.93L144.82-22.93L144.82-5.08L156.02-5.08Q157.50-5.08 158.72-5.56Q159.94-6.04 160.82-6.90Q161.70-7.77 162.18-8.99Q162.66-10.21 162.66-11.72L162.66-11.72Z M199.63-8.24L199.63-8.24Q199.63-6.74 199.25-5.54Q198.87-4.34 198.24-3.42Q197.62-2.50 196.78-1.86Q195.94-1.21 195.04-0.80Q194.14-0.39 193.21-0.20Q192.29 0 191.46 0L191.46 0L171.88 0L171.88-5.08L191.46-5.08Q192.93-5.08 193.74-5.94Q194.55-6.80 194.55-8.24L194.55-8.24Q194.55-8.95 194.34-9.53Q194.12-10.12 193.72-10.55Q193.32-10.98 192.74-11.21Q192.17-11.45 191.46-11.45L191.46-11.45L179.79-11.45Q178.55-11.45 177.13-11.88Q175.70-12.32 174.48-13.30Q173.26-14.28 172.45-15.86Q171.64-17.44 171.64-19.73L171.64-19.73Q171.64-22.01 172.45-23.58Q173.26-25.16 174.48-26.14Q175.70-27.13 177.13-27.57Q178.55-28.01 179.79-28.01L179.79-28.01L197.07-28.01L197.07-22.93L179.79-22.93Q178.34-22.93 177.53-22.05Q176.72-21.17 176.72-19.73L176.72-19.73Q176.72-18.26 177.53-17.41Q178.34-16.56 179.79-16.56L179.79-16.56L191.46-16.56L191.50-16.56Q192.32-16.54 193.24-16.34Q194.16-16.13 195.07-15.70Q195.98-15.27 196.80-14.62Q197.62-13.96 198.25-13.05Q198.89-12.13 199.26-10.94Q199.63-9.75 199.63-8.24Z M228.87-28.01L228.87-22.93L217.68-22.93L217.68 0L212.60 0L212.60-22.93L201.39-22.93L201.39-28.01L228.87-28.01Z M259.28-28.01L259.28-18.63Q259.28-16.89 258.84-15.53Q258.40-14.16 257.68-13.12Q256.95-12.07 255.99-11.33Q255.02-10.59 253.98-10.11Q252.95-9.63 251.88-9.41Q250.82-9.20 249.88-9.20L249.88-9.20L247.83-9.20L247.83 0L242.71 0L242.71-9.20L240.68-9.20Q239.75-9.20 238.68-9.41Q237.62-9.63 236.57-10.11Q235.53-10.59 234.57-11.33Q233.61-12.07 232.88-13.12Q232.15-14.16 231.71-15.54Q231.27-16.91 231.27-18.63L231.27-18.63L231.27-28.01L236.35-28.01L236.35-18.63Q236.35-17.64 236.66-16.85Q236.97-16.05 237.54-15.49Q238.11-14.92 238.92-14.62Q239.73-14.32 240.72-14.32L240.72-14.32L249.88-14.32Q250.61-14.43 251.37-14.62Q252.13-14.80 252.75-15.25Q253.38-15.70 253.79-16.50Q254.20-17.30 254.20-18.63L254.20-18.63L254.20-28.01L259.28-28.01Z M289.57-5.08L289.57 0L266.41 0Q265.86 0 265.39-0.20Q264.92-0.39 264.58-0.73Q264.24-1.07 264.04-1.54Q263.85-2.01 263.85-2.56L263.85-2.56L263.85-28.01L268.93-28.01L268.93-5.08L289.57-5.08Z M316.21-16.56L316.21-11.45L300.18-11.45L300.18-16.56L316.21-16.56ZM318.50-5.08L318.50 0L300.18 0Q299.12 0 297.87-0.37Q296.62-0.74 295.56-1.59Q294.49-2.44 293.78-3.80Q293.07-5.16 293.07-7.13L293.07-7.13L293.07-25.45Q293.07-25.98 293.26-26.45Q293.46-26.91 293.80-27.27Q294.14-27.62 294.61-27.81Q295.08-28.01 295.63-28.01L295.63-28.01L318.50-28.01L318.50-22.93L298.14-22.93L298.14-7.13Q298.14-6.13 298.67-5.61Q299.20-5.08 300.21-5.08L300.21-5.08L318.50-5.08Z"/></g>
</svg>
</g><g opacity="1" transform="rotate(0 393.0001 77.5218)">
<svg width="189.9999" height="166.7932" x="393.0001" y="77.5218" version="1.1" preserveAspectRatio="none" viewBox="40.125999450683594 84.0803451538086 719.7500610351562 631.8387451171875">
  <g transform="matrix(1 0 0 1 0 0)" class="aLgOaV3zRcolors-05c2b5ab8-6bd3-4f27-98d6-1b4e66878a56"><g><path d="M594.677,537.213c9.249,0,16.746-7.498,16.746-16.746v-12.265c0-9.249-7.497-16.746-16.746-16.746   s-16.746,7.497-16.746,16.746v12.265C577.931,529.715,585.428,537.213,594.677,537.213z"></path><path d="M200.119,184.7c4.286,0,8.572-1.635,11.842-4.905l5.204-5.203c1.079-1.078,2.165-2.145,3.259-3.199   c6.657-6.421,6.85-17.021,0.431-23.68c-6.421-6.656-17.021-6.85-23.679-0.431c-1.24,1.195-2.472,2.403-3.693,3.626l-5.204,5.204   c-6.539,6.54-6.539,17.144,0,23.683C191.548,183.065,195.834,184.7,200.119,184.7z"></path><path d="M754.969,299.358l-148.45-148.449c-29.072-29.073-63.396-51.195-102.017-65.753c-4.742-1.787-10.04-1.33-14.406,1.241   c-4.366,2.573-7.333,6.985-8.068,11.999c-6.099,41.581-36.919,85.774-82.027,85.774c-45.092,0-75.915-44.177-82.023-85.743   c-0.736-5.013-3.703-9.422-8.069-11.994c-4.367-2.571-9.663-3.029-14.403-1.24c-21.229,8-41.451,18.461-60.104,31.092   c-7.658,5.186-9.663,15.599-4.477,23.256c5.186,7.656,15.597,9.662,23.255,4.477c11.152-7.551,22.943-14.227,35.219-19.946   c6.25,21.298,17.051,40.971,31.377,56.806c21.77,24.065,49.166,36.786,79.227,36.786c30.067,0,57.469-12.726,79.241-36.802   c14.327-15.844,25.128-35.527,31.374-56.832c26.898,12.514,51.126,29.467,72.221,50.563l87.734,87.734l-58.759,58.758   l-55.089-55.09c-6.54-6.54-17.143-6.539-23.683,0s-6.54,17.143-0.001,23.682l44.892,44.893v127.236   c0,9.249,7.497,16.746,16.746,16.746s16.746-7.497,16.746-16.746v-93.744l37.421,37.422c3.141,3.141,7.4,4.905,11.842,4.905   s8.701-1.765,11.842-4.904l82.441-82.442c3.141-3.141,4.905-7.399,4.905-11.841C759.874,306.758,758.109,302.499,754.969,299.358z    M660.686,369.959l-25.191-25.191l58.76-58.759l25.191,25.191L660.686,369.959z"></path><path d="M611.424,633.607l-0.001-66.883c0-9.249-7.497-16.746-16.746-16.746s-16.746,7.498-16.746,16.746l0.001,50.153H257.715   c-9.249,0-16.746,7.497-16.746,16.746s7.497,16.746,16.746,16.746h320.217v32.058H222.067l0.002-347.858l44.893-44.894   c6.539-6.539,6.539-17.143-0.001-23.682c-6.539-6.54-17.143-6.539-23.683,0l-55.091,55.091l-58.759-58.759l49.811-49.81   c6.539-6.54,6.54-17.144,0-23.683s-17.142-6.539-23.683,0L45.031,299.358c-3.141,3.141-4.905,7.399-4.905,11.842   c0,4.441,1.765,8.7,4.905,11.841l82.442,82.442c3.271,3.27,7.556,4.904,11.841,4.904s8.572-1.635,11.842-4.905l37.421-37.421   l-0.002,331.112c0,4.441,1.765,8.7,4.904,11.841c3.141,3.141,7.399,4.905,11.842,4.905h389.356c4.442,0,8.701-1.765,11.842-4.905   s4.904-7.4,4.904-11.841v-65.533v-0.017C611.424,633.618,611.424,633.613,611.424,633.607z M139.314,369.959L80.555,311.2   l25.191-25.191l58.76,58.759L139.314,369.959z"></path></g></g>
</svg>
</g></svg></svg>