<svg version="1.1" preserveAspectRatio="none" xmlns="http://www.w3.org/2000/svg" width="500" height="500" viewBox="0 0 500 500"><rect width="100%" height="100%" fill="#121212" fill-opacity="1"/><svg viewBox="47.1242 113.9588 378.1275 267.9714" width="333" height="235.99044290616263" x="83.5px" y="132.0048px" xmlns="http://www.w3.org/2000/svg" xmlns:xlink="http://www.w3.org/1999/xlink" preserveAspectRatio="none"><defs></defs><style>.companyName {fill:#E3E3E3;fill-opacity:1;}.icon1 {fill:#F1EC40;fill-opacity:1;}.icon2 {fill:#555555;fill-opacity:1;}.icon3 {fill:#AAAAAA;fill-opacity:1;}.icon3-str {stroke:#AAAAAA;stroke-opacity:1;}.text {fill:#E3E3E3;fill-opacity:1;}</style><g opacity="1" transform="rotate(0 120.2572 363.9302)">
<svg width="231.8615" height="18" x="120.2572" y="363.9302" version="1.1" preserveAspectRatio="none" viewBox="3.24 -28 462.68 35.92">
  <g transform="matrix(1 0 0 1 0 0)" class="text"><path id="id-6izo4zJp21" d="M25.52-26.48L29-26.48L29 0L26 0L26-21.92L16.20-9.32L6.24-21.92L6.24 0L3.24 0L3.24-26.48L6.72-26.48L16.20-13.92L25.52-26.48Z M47.16-20.32L47.16-20.32Q51.64-20.32 54.44-17.32L54.44-17.32Q57.08-14.44 57.08-10L57.08-10Q57.08-5.56 54.44-2.68L54.44-2.68Q51.64 0.32 47.16 0.32L47.16 0.32Q42.68 0.32 39.88-2.68L39.88-2.68Q37.24-5.56 37.24-10L37.24-10Q37.24-14.44 39.88-17.32L39.88-17.32Q42.68-20.32 47.16-20.32ZM47.16-2.40L47.16-2.40Q50.40-2.40 52.28-4.64L52.28-4.64Q54.08-6.76 54.08-10L54.08-10Q54.08-13.24 52.28-15.36L52.28-15.36Q50.40-17.60 47.16-17.60L47.16-17.60Q43.92-17.60 42.04-15.36L42.04-15.36Q40.24-13.24 40.24-10L40.24-10Q40.24-6.76 42.04-4.64L42.04-4.64Q43.92-2.40 47.16-2.40Z M80.64 0L80.64-3.20Q78.24 0.32 73.48 0.32L73.48 0.32Q69.16 0.32 66.44-2.68L66.44-2.68Q63.80-5.64 63.80-10L63.80-10Q63.80-14.36 66.44-17.32L66.44-17.32Q69.16-20.32 73.68-20.32Q78.20-20.32 80.64-16.76L80.64-16.76L80.64-28L83.64-28L83.64 0L80.64 0ZM73.88-2.40L73.88-2.40Q77.12-2.40 79-4.64L79-4.64Q80.80-6.76 80.80-10L80.80-10Q80.80-13.24 79-15.36L79-15.36Q77.12-17.60 73.88-17.60L73.88-17.60Q70.68-17.60 68.68-15.36L68.68-15.36Q66.80-13.24 66.80-10L66.80-10Q66.80-6.76 68.68-4.64L68.68-4.64Q70.68-2.40 73.88-2.40Z M108.44 0L108.44-3.20Q106.04 0.32 101.28 0.32L101.28 0.32Q96.96 0.32 94.24-2.68L94.24-2.68Q91.60-5.64 91.60-10L91.60-10Q91.60-14.36 94.24-17.32L94.24-17.32Q96.96-20.32 101.48-20.32Q106-20.32 108.44-16.76L108.44-16.76L108.44-20L111.44-20L111.44 0L108.44 0ZM101.68-2.40L101.68-2.40Q104.92-2.40 106.80-4.64L106.80-4.64Q108.60-6.76 108.60-10L108.60-10Q108.60-13.24 106.80-15.36L106.80-15.36Q104.92-17.60 101.68-17.60L101.68-17.60Q98.48-17.60 96.48-15.36L96.48-15.36Q94.60-13.24 94.60-10L94.60-10Q94.60-6.76 96.48-4.64L96.48-4.64Q98.48-2.40 101.68-2.40Z M148.76 7.92L148.76-3.24Q146.32 0.32 141.60 0.32L141.60 0.32Q137.28 0.32 134.56-2.68L134.56-2.68Q131.92-5.64 131.92-10L131.92-10Q131.92-14.36 134.56-17.32L134.56-17.32Q137.28-20.32 141.82-20.32Q146.36-20.32 148.76-16.80L148.76-16.80L148.76-20L151.76-20L151.76 7.92L148.76 7.92ZM142-17.60L142-17.60Q138.80-17.60 136.80-15.36L136.80-15.36Q134.92-13.24 134.92-10L134.92-10Q134.92-6.76 136.80-4.64L136.80-4.64Q138.80-2.40 142-2.40L142-2.40Q145.24-2.40 147.12-4.64L147.12-4.64Q148.92-6.76 148.92-10L148.92-10Q148.92-13.24 147.12-15.36L147.12-15.36Q145.24-17.60 142-17.60Z M178.40 0L175.40 0L175.40-3.12Q174.32-1.68 172.76-0.68Q171.20 0.32 169.20 0.32Q167.20 0.32 165.76-0.24Q164.32-0.80 163.24-1.92L163.24-1.92Q160.76-4.36 160.76-8.36L160.76-8.36L160.76-20L163.76-20L163.76-8.44Q163.76-5.68 165.32-4.04Q166.88-2.40 169.36-2.40L169.36-2.40Q171.88-2.40 173.64-4.08L173.64-4.08Q175.40-5.80 175.40-8.48L175.40-8.48L175.40-20L178.40-20L178.40 0Z M196.52-2.40L196.52-2.40Q200.56-2.40 202.32-5.76L202.32-5.76L205.60-5.76Q204.56-3.04 202.30-1.36Q200.04 0.32 196.48 0.32L196.48 0.32Q191.96 0.32 189.12-2.68L189.12-2.68Q186.36-5.60 186.36-10L186.36-10Q186.36-14.44 189-17.32L189-17.32Q191.80-20.32 196.28-20.32L196.28-20.32Q200.76-20.32 203.56-17.32L203.56-17.32Q206.20-14.44 206.20-10L206.20-10L206.20-8.80L189.44-8.80Q189.76-6.04 191.64-4.24L191.64-4.24Q193.56-2.40 196.52-2.40ZM196.28-17.60L196.28-17.60Q193.52-17.60 191.64-15.88L191.64-15.88Q189.88-14.24 189.48-11.60L189.48-11.60L203.08-11.60Q202.68-14.24 200.92-15.88L200.92-15.88Q199.04-17.60 196.28-17.60Z M226.40-28L229.40-28L229.40-16.88Q230.48-18.32 232.04-19.32Q233.60-20.32 235.60-20.32Q237.60-20.32 239.04-19.76Q240.48-19.20 241.56-18.08L241.56-18.08Q244.04-15.64 244.04-11.64L244.04-11.64L244.04 0L241.04 0L241.04-11.56Q241.04-14.32 239.48-15.96Q237.92-17.60 235.44-17.60L235.44-17.60Q232.92-17.60 231.16-15.92L231.16-15.92Q229.40-14.20 229.40-11.52L229.40-11.52L229.40 0L226.40 0L226.40-28Z M268.64 0L268.64-3.20Q266.24 0.32 261.48 0.32L261.48 0.32Q257.16 0.32 254.44-2.68L254.44-2.68Q251.80-5.64 251.80-10L251.80-10Q251.80-14.36 254.44-17.32L254.44-17.32Q257.16-20.32 261.68-20.32Q266.20-20.32 268.64-16.76L268.64-16.76L268.64-20L271.64-20L271.64 0L268.64 0ZM261.88-2.40L261.88-2.40Q265.12-2.40 267-4.64L267-4.64Q268.80-6.76 268.80-10L268.80-10Q268.80-13.24 267-15.36L267-15.36Q265.12-17.60 261.88-17.60L261.88-17.60Q258.68-17.60 256.68-15.36L256.68-15.36Q254.80-13.24 254.80-10L254.80-10Q254.80-6.76 256.68-4.64L256.68-4.64Q258.68-2.40 261.88-2.40Z M283.84-28L283.84-16.76Q286.28-20.32 291-20.32L291-20.32Q295.32-20.32 298-17.32L298-17.32Q300.68-14.36 300.68-10L300.68-10Q300.68-5.64 298-2.68L298-2.68Q295.32 0.32 290.78 0.32Q286.24 0.32 283.84-3.20L283.84-3.20L283.84 0L280.84 0L280.84-28L283.84-28ZM290.60-2.40L290.60-2.40Q293.80-2.40 295.80-4.64L295.80-4.64Q297.68-6.76 297.68-10L297.68-10Q297.68-13.24 295.80-15.36L295.80-15.36Q293.80-17.60 290.60-17.60L290.60-17.60Q287.36-17.60 285.48-15.36L285.48-15.36Q283.68-13.24 283.68-10L283.68-10Q283.68-6.76 285.48-4.64L285.48-4.64Q287.36-2.40 290.60-2.40Z M311.60-28L311.60 0L308.60 0L308.60-28L311.60-28Z M336.40 0L336.40-3.20Q334 0.32 329.24 0.32L329.24 0.32Q324.92 0.32 322.20-2.68L322.20-2.68Q319.56-5.64 319.56-10L319.56-10Q319.56-14.36 322.20-17.32L322.20-17.32Q324.92-20.32 329.44-20.32Q333.96-20.32 336.40-16.76L336.40-16.76L336.40-20L339.40-20L339.40 0L336.40 0ZM329.64-2.40L329.64-2.40Q332.88-2.40 334.76-4.64L334.76-4.64Q336.56-6.76 336.56-10L336.56-10Q336.56-13.24 334.76-15.36L334.76-15.36Q332.88-17.60 329.64-17.60L329.64-17.60Q326.44-17.60 324.44-15.36L324.44-15.36Q322.56-13.24 322.56-10L322.56-10Q322.56-6.76 324.44-4.64L324.44-4.64Q326.44-2.40 329.64-2.40Z M364.12-20L364.12-16.80Q366.52-20.32 371.28-20.32L371.28-20.32Q375.60-20.32 378.28-17.32L378.28-17.32Q380.96-14.36 380.96-10L380.96-10Q380.96-5.64 378.28-2.68L378.28-2.68Q375.60 0.32 371.08 0.32Q366.56 0.32 364.12-3.24L364.12-3.24L364.12 7.92L361.12 7.92L361.12-20L364.12-20ZM370.88-17.60L370.88-17.60Q367.64-17.60 365.76-15.36L365.76-15.36Q363.96-13.24 363.96-10L363.96-10Q363.96-6.76 365.76-4.64L365.76-4.64Q367.64-2.40 370.88-2.40L370.88-2.40Q374.08-2.40 376.08-4.64L376.08-4.64Q377.96-6.76 377.96-10L377.96-10Q377.96-13.24 376.08-15.36L376.08-15.36Q374.08-17.60 370.88-17.60Z M397.56-20.32L397.56-20.32Q402.04-20.32 404.84-17.32L404.84-17.32Q407.48-14.44 407.48-10L407.48-10Q407.48-5.56 404.84-2.68L404.84-2.68Q402.04 0.32 397.56 0.32L397.56 0.32Q393.08 0.32 390.28-2.68L390.28-2.68Q387.64-5.56 387.64-10L387.64-10Q387.64-14.44 390.28-17.32L390.28-17.32Q393.08-20.32 397.56-20.32ZM397.56-2.40L397.56-2.40Q400.80-2.40 402.68-4.64L402.68-4.64Q404.48-6.76 404.48-10L404.48-10Q404.48-13.24 402.68-15.36L402.68-15.36Q400.80-17.60 397.56-17.60L397.56-17.60Q394.32-17.60 392.44-15.36L392.44-15.36Q390.64-13.24 390.64-10L390.64-10Q390.64-6.76 392.44-4.64L392.44-4.64Q394.32-2.40 397.56-2.40Z M425.80-20.32L426-20.32L426-17.32L425.64-17.32Q422.40-17.32 420.36-14.72L420.36-14.72Q418.44-12.24 418.44-8.80L418.44-8.80L418.44 0L415.44 0L415.44-20L418.44-20L418.44-15.08Q419.40-18.20 422.60-19.68L422.60-19.68Q423.92-20.32 425.80-20.32L425.80-20.32Z M450.92 0L447.92 0L447.92-17.36L443.84-17.36L443.84-20L447.92-20L447.92-27.16L450.92-27.16L450.92-20L455.52-20L455.52-17.36L450.92-17.36L450.92 0Z M462.80 0L462.80-20L465.80-20L465.80 0L462.80 0ZM462.68-27.28L465.92-27.28L465.92-23.36L462.68-23.36L462.68-27.28Z"/></g>
</svg>
</g><g opacity="1" transform="rotate(0 47.1242 309.9302)">
<svg width="378.1275" height="34" x="47.1242" y="309.9302" version="1.1" preserveAspectRatio="none" viewBox="0.7813 -28.3984 320.1758 28.7891">
  <g transform="matrix(1 0 0 1 0 0)" class="companyName"><path id="id-D6z1nYkh11" d="M28.26-28.01L28.26-22.93L17.07-22.93L17.07 0L11.99 0L11.99-22.93L0.78-22.93L0.78-28.01L28.26-28.01Z M55.02-16.56L55.02-11.45L38.98-11.45L38.98-16.56L55.02-16.56ZM57.30-5.08L57.30 0L38.98 0Q37.93 0 36.68-0.37Q35.43-0.74 34.37-1.59Q33.30-2.44 32.59-3.80Q31.88-5.16 31.88-7.13L31.88-7.13L31.88-25.45Q31.88-25.98 32.07-26.45Q32.27-26.91 32.61-27.27Q32.95-27.62 33.42-27.81Q33.89-28.01 34.43-28.01L34.43-28.01L57.30-28.01L57.30-22.93L36.95-22.93L36.95-7.13Q36.95-6.13 37.48-5.61Q38.01-5.08 39.02-5.08L39.02-5.08L57.30-5.08Z M85.23-16.56L85.23-11.45L69.20-11.45L69.20-16.56L85.23-16.56ZM87.52-5.08L87.52 0L69.20 0Q68.14 0 66.89-0.37Q65.64-0.74 64.58-1.59Q63.52-2.44 62.80-3.80Q62.09-5.16 62.09-7.13L62.09-7.13L62.09-25.45Q62.09-25.98 62.29-26.45Q62.48-26.91 62.82-27.27Q63.16-27.62 63.63-27.81Q64.10-28.01 64.65-28.01L64.65-28.01L87.52-28.01L87.52-22.93L67.17-22.93L67.17-7.13Q67.17-6.13 67.70-5.61Q68.22-5.08 69.24-5.08L69.24-5.08L87.52-5.08Z M114.79-28.01L120.45-28.01L107.19-1.00Q106.88-0.37 106.26 0.01Q105.64 0.39 104.90 0.39L104.90 0.39Q104.18 0.39 103.56 0.01Q102.95-0.37 102.62-1.00L102.62-1.00L89.38-28.01L95.06-28.01L104.90-7.83L114.79-28.01Z M152.13-16.68L152.13-11.33Q152.13-8.77 151.25-6.62Q150.37-4.47 148.81-2.91Q147.25-1.35 145.11-0.48Q142.97 0.39 140.45 0.39L140.45 0.39L133.57 0.39Q131.05 0.39 128.91-0.48Q126.76-1.35 125.20-2.91Q123.63-4.47 122.74-6.62Q121.86-8.77 121.86-11.33L121.86-11.33L121.86-16.68Q121.86-19.22 122.74-21.38Q123.63-23.54 125.20-25.09Q126.76-26.64 128.91-27.52Q131.05-28.40 133.57-28.40L133.57-28.40L140.45-28.40Q142.97-28.40 145.11-27.52Q147.25-26.64 148.81-25.09Q150.37-23.54 151.25-21.38Q152.13-19.22 152.13-16.68L152.13-16.68ZM147.05-11.33L147.05-16.68Q147.05-18.18 146.57-19.40Q146.09-20.63 145.22-21.49Q144.36-22.36 143.13-22.84Q141.91-23.32 140.45-23.32L140.45-23.32L133.57-23.32Q132.09-23.32 130.87-22.84Q129.65-22.36 128.77-21.49Q127.89-20.63 127.41-19.40Q126.93-18.18 126.93-16.68L126.93-16.68L126.93-11.33Q126.93-9.82 127.41-8.60Q127.89-7.38 128.77-6.51Q129.65-5.64 130.87-5.17Q132.09-4.69 133.57-4.69L133.57-4.69L140.41-4.69Q141.89-4.69 143.12-5.17Q144.34-5.64 145.21-6.51Q146.09-7.38 146.57-8.60Q147.05-9.82 147.05-11.33L147.05-11.33Z M182.87-5.08L182.87 0L159.71 0Q159.16 0 158.69-0.20Q158.22-0.39 157.88-0.73Q157.54-1.07 157.34-1.54Q157.15-2.01 157.15-2.56L157.15-2.56L157.15-28.01L162.23-28.01L162.23-5.08L182.87-5.08Z M212.56-28.01L212.56-2.56Q212.56-2.01 212.36-1.54Q212.17-1.07 211.82-0.73Q211.46-0.39 211.00-0.20Q210.53 0 210 0L210 0L198.55 0Q196.93 0 195.27-0.35Q193.61-0.70 192.06-1.44Q190.51-2.17 189.14-3.30Q187.77-4.43 186.75-5.99Q185.72-7.54 185.14-9.54Q184.55-11.54 184.55-14.00L184.55-14.00L184.55-28.01L189.63-28.01L189.63-14.00Q189.63-11.86 190.22-10.37Q190.82-8.89 191.74-7.89Q192.66-6.89 193.75-6.33Q194.84-5.76 195.83-5.49Q196.82-5.21 197.57-5.15Q198.32-5.08 198.55-5.08L198.55-5.08L207.48-5.08L207.48-28.01L212.56-28.01Z M243.77-28.01L243.77-22.93L232.58-22.93L232.58 0L227.50 0L227.50-22.93L216.29-22.93L216.29-28.01L243.77-28.01Z M252.62-28.01L252.62 0L247.54 0L247.54-28.01L252.62-28.01Z M287.95-16.68L287.95-11.33Q287.95-8.77 287.07-6.62Q286.19-4.47 284.63-2.91Q283.07-1.35 280.93-0.48Q278.79 0.39 276.27 0.39L276.27 0.39L269.39 0.39Q266.88 0.39 264.73-0.48Q262.58-1.35 261.02-2.91Q259.45-4.47 258.56-6.62Q257.68-8.77 257.68-11.33L257.68-11.33L257.68-16.68Q257.68-19.22 258.56-21.38Q259.45-23.54 261.02-25.09Q262.58-26.64 264.73-27.52Q266.88-28.40 269.39-28.40L269.39-28.40L276.27-28.40Q278.79-28.40 280.93-27.52Q283.07-26.64 284.63-25.09Q286.19-23.54 287.07-21.38Q287.95-19.22 287.95-16.68L287.95-16.68ZM282.87-11.33L282.87-16.68Q282.87-18.18 282.39-19.40Q281.91-20.63 281.04-21.49Q280.18-22.36 278.96-22.84Q277.73-23.32 276.27-23.32L276.27-23.32L269.39-23.32Q267.91-23.32 266.69-22.84Q265.47-22.36 264.59-21.49Q263.71-20.63 263.23-19.40Q262.75-18.18 262.75-16.68L262.75-16.68L262.75-11.33Q262.75-9.82 263.23-8.60Q263.71-7.38 264.59-6.51Q265.47-5.64 266.69-5.17Q267.91-4.69 269.39-4.69L269.39-4.69L276.23-4.69Q277.71-4.69 278.94-5.17Q280.16-5.64 281.04-6.51Q281.91-7.38 282.39-8.60Q282.87-9.82 282.87-11.33L282.87-11.33Z M320.96-28.01L320.96-2.17Q320.96-1.62 320.75-1.15Q320.55-0.68 320.21-0.34Q319.86 0 319.39 0.20Q318.93 0.39 318.40 0.39L318.40 0.39Q317.93 0.39 317.45 0.21Q316.97 0.04 316.60-0.35L316.60-0.35L298.05-19.73L298.05 0L292.97 0L292.97-25.84Q292.97-26.62 293.41-27.26Q293.85-27.89 294.53-28.20L294.53-28.20Q295.25-28.50 296.02-28.35Q296.78-28.20 297.32-27.64L297.32-27.64L315.88-8.28L315.88-28.01L320.96-28.01Z"/></g>
</svg>
</g><g opacity="1" transform="rotate(0 141.6561 113.9588)">
<svg width="189.0638" height="165.9714" x="141.6561" y="113.9588" version="1.1" preserveAspectRatio="none" viewBox="40.125999450683594 84.0803451538086 719.7500610351562 631.8387451171875">
  <g transform="matrix(1 0 0 1 0 0)" class="icon1"><g><path d="M594.677,537.213c9.249,0,16.746-7.498,16.746-16.746v-12.265c0-9.249-7.497-16.746-16.746-16.746   s-16.746,7.497-16.746,16.746v12.265C577.931,529.715,585.428,537.213,594.677,537.213z"></path><path d="M200.119,184.7c4.286,0,8.572-1.635,11.842-4.905l5.204-5.203c1.079-1.078,2.165-2.145,3.259-3.199   c6.657-6.421,6.85-17.021,0.431-23.68c-6.421-6.656-17.021-6.85-23.679-0.431c-1.24,1.195-2.472,2.403-3.693,3.626l-5.204,5.204   c-6.539,6.54-6.539,17.144,0,23.683C191.548,183.065,195.834,184.7,200.119,184.7z"></path><path d="M754.969,299.358l-148.45-148.449c-29.072-29.073-63.396-51.195-102.017-65.753c-4.742-1.787-10.04-1.33-14.406,1.241   c-4.366,2.573-7.333,6.985-8.068,11.999c-6.099,41.581-36.919,85.774-82.027,85.774c-45.092,0-75.915-44.177-82.023-85.743   c-0.736-5.013-3.703-9.422-8.069-11.994c-4.367-2.571-9.663-3.029-14.403-1.24c-21.229,8-41.451,18.461-60.104,31.092   c-7.658,5.186-9.663,15.599-4.477,23.256c5.186,7.656,15.597,9.662,23.255,4.477c11.152-7.551,22.943-14.227,35.219-19.946   c6.25,21.298,17.051,40.971,31.377,56.806c21.77,24.065,49.166,36.786,79.227,36.786c30.067,0,57.469-12.726,79.241-36.802   c14.327-15.844,25.128-35.527,31.374-56.832c26.898,12.514,51.126,29.467,72.221,50.563l87.734,87.734l-58.759,58.758   l-55.089-55.09c-6.54-6.54-17.143-6.539-23.683,0s-6.54,17.143-0.001,23.682l44.892,44.893v127.236   c0,9.249,7.497,16.746,16.746,16.746s16.746-7.497,16.746-16.746v-93.744l37.421,37.422c3.141,3.141,7.4,4.905,11.842,4.905   s8.701-1.765,11.842-4.904l82.441-82.442c3.141-3.141,4.905-7.399,4.905-11.841C759.874,306.758,758.109,302.499,754.969,299.358z    M660.686,369.959l-25.191-25.191l58.76-58.759l25.191,25.191L660.686,369.959z"></path><path d="M611.424,633.607l-0.001-66.883c0-9.249-7.497-16.746-16.746-16.746s-16.746,7.498-16.746,16.746l0.001,50.153H257.715   c-9.249,0-16.746,7.497-16.746,16.746s7.497,16.746,16.746,16.746h320.217v32.058H222.067l0.002-347.858l44.893-44.894   c6.539-6.539,6.539-17.143-0.001-23.682c-6.539-6.54-17.143-6.539-23.683,0l-55.091,55.091l-58.759-58.759l49.811-49.81   c6.539-6.54,6.54-17.144,0-23.683s-17.142-6.539-23.683,0L45.031,299.358c-3.141,3.141-4.905,7.399-4.905,11.842   c0,4.441,1.765,8.7,4.905,11.841l82.442,82.442c3.271,3.27,7.556,4.904,11.841,4.904s8.572-1.635,11.842-4.905l37.421-37.421   l-0.002,331.112c0,4.441,1.765,8.7,4.904,11.841c3.141,3.141,7.399,4.905,11.842,4.905h389.356c4.442,0,8.701-1.765,11.842-4.905   s4.904-7.4,4.904-11.841v-65.533v-0.017C611.424,633.618,611.424,633.613,611.424,633.607z M139.314,369.959L80.555,311.2   l25.191-25.191l58.76,58.759L139.314,369.959z"></path></g></g>
</svg>
</g></svg></svg>